<svg viewBox="0 0 20 20" width="20" height="20" fill="none" class="css-1h47l4s"><g id="Icon/Social/Apple"><path id="" d="M10.1988 4.59941C10.9417 4.59941 11.8729 4.08174 12.4275 3.39152C12.9297 2.76601 13.2959 1.89245 13.2959 1.01889C13.2959 0.900263 13.2855 0.781632 13.2645 0.68457C12.4379 0.716924 11.4439 1.25616 10.8475 1.97873C10.3767 2.52875 9.9477 3.39152 9.9477 4.27587C9.9477 4.40528 9.96863 4.5347 9.97909 4.57784C10.0314 4.58862 10.1151 4.59941 10.1988 4.59941ZM7.58303 17.6489C8.59795 17.6489 9.04787 16.9479 10.3139 16.9479C11.6009 16.9479 11.8834 17.6273 13.0134 17.6273C14.1225 17.6273 14.8654 16.5704 15.5664 15.5351C16.3512 14.3487 16.6755 13.184 16.6964 13.1301C16.6232 13.1085 14.4992 12.2134 14.4992 9.70055C14.4992 7.52205 16.1733 6.54065 16.2675 6.46515C15.1584 4.82588 13.4738 4.78275 13.0134 4.78275C11.7683 4.78275 10.7534 5.55924 10.1151 5.55924C9.42454 5.55924 8.51425 4.82588 7.43654 4.82588C5.38576 4.82588 3.30359 6.573 3.30359 9.87311C3.30359 11.9222 4.07786 14.0899 5.03001 15.4919C5.84614 16.6782 6.55763 17.6489 7.58303 17.6489Z" fill="black"></path></g></svg>