<svg width="512" height="512" viewBox="0 0 512 512" fill="none" xmlns="http://www.w3.org/2000/svg">
<g clip-path="url(#clip0_102_1955)">
<path d="M256 512C397.385 512 512 397.385 512 256C512 114.615 397.385 0 256 0C114.615 0 0 114.615 0 256C0 397.385 114.615 512 256 512Z" fill="#FC521F"/>
<path d="M316.32 374.032L275.538 350.494L398.227 279.727C402.932 277.014 407.362 273.898 411.487 270.427C427.435 293.134 429 323.033 414.786 347.659C401.844 369.935 378.038 383.653 352.275 383.681C339.706 383.681 327.283 380.35 316.32 374.026V374.032ZM306.495 391.032C311.2 393.751 316.113 396.036 321.191 397.876C309.477 423.014 284.35 439.317 255.887 439.317C216.156 439.317 183.812 407.011 183.812 367.304V225.759L246.061 261.683V350.5C246.061 354.008 247.937 357.246 250.974 359L306.495 391.032ZM159.688 383.668C133.939 383.642 110.145 369.933 97.2072 347.671C87.6037 331.148 85.0157 311.468 90.0212 293.024C94.9184 274.543 107.011 258.791 123.599 249.284L164.369 225.759L164.375 367.28C164.375 372.712 164.839 378.096 165.786 383.43C163.758 383.589 161.717 383.668 159.688 383.668ZM318.337 208.753L256.107 244.653L179.113 200.247C176.074 198.499 172.334 198.499 169.294 200.247L113.773 232.273C109.068 234.98 104.632 238.078 100.501 241.567C84.5644 218.866 83.0062 188.961 97.2072 164.335C110.146 142.058 133.95 128.337 159.712 128.307C172.27 128.307 184.705 131.656 195.667 137.974L318.337 208.753ZM255.887 72.6825C295.636 72.6825 327.961 104.989 327.961 144.714V191.766L205.31 121.005C200.618 118.288 195.694 115.994 190.595 114.149C202.303 88.9917 227.442 72.6825 255.887 72.6825ZM414.78 164.36C434.64 198.756 422.81 242.887 388.389 262.746L265.719 333.507V261.695L342.706 217.277C345.749 215.524 347.625 212.285 347.625 208.777V144.714C347.625 139.306 347.136 133.917 346.207 128.607C374.051 126.286 400.742 140.203 414.78 164.36Z" fill="white"/>
</g>
<defs>
<clipPath id="clip0_102_1955">
<rect width="512" height="512" fill="white"/>
</clipPath>
</defs>
</svg>
