<svg viewBox="0 0 16 16" width="16" height="16" fill="none" class="css-1h47l4s"><g id="Group"><path id="Vector" fill-rule="evenodd" clip-rule="evenodd" d="M15.4057 8.17566C15.4057 7.6288 15.3569 7.10251 15.2651 6.59766H8V9.58137H12.152C11.9729 10.5457 11.4294 11.3634 10.6126 11.9102V13.8457H13.1051C14.564 12.5025 15.4057 10.5251 15.4057 8.17566Z" fill="#3D82F0"></path><path id="Vector_2" fill-rule="evenodd" clip-rule="evenodd" d="M8.0002 15.7146C10.0831 15.7146 11.8291 15.0238 13.1053 13.8461L10.6128 11.9098C9.92192 12.3726 9.0382 12.6461 8.0002 12.6461C5.99106 12.6461 4.29049 11.2892 3.68363 9.46606H1.1062V11.4649C2.37563 13.9858 4.98477 15.7146 8.0002 15.7146Z" fill="#31A752"></path><path id="Vector_3" fill-rule="evenodd" clip-rule="evenodd" d="M3.68348 9.46593C3.5292 9.00307 3.44177 8.5085 3.44177 8.00022C3.44177 7.49193 3.5292 6.99736 3.68348 6.5345V4.53564H1.10605C0.584052 5.57707 0.285767 6.75564 0.285767 8.00022C0.285767 9.24479 0.584052 10.4234 1.10605 11.4648L3.68348 9.46593Z" fill="#F9BA00"></path><path id="Vector_4" fill-rule="evenodd" clip-rule="evenodd" d="M8.0002 3.35422C9.13249 3.35422 10.1499 3.74336 10.9488 4.50793L13.1619 2.29564C11.8256 1.05022 10.0796 0.285645 8.0002 0.285645C4.98477 0.285645 2.37563 2.0145 1.1062 4.53622L3.68363 6.53422C4.29049 4.71107 5.99106 3.35422 8.0002 3.35422Z" fill="#E64234"></path></g></svg>